<?xml version="1.0" standalone="no"?>
<!DOCTYPE svg PUBLIC "-//W3C//DTD SVG 20010904//EN"
 "http://www.w3.org/TR/2001/REC-SVG-20010904/DTD/svg10.dtd">
<svg version="1.0" xmlns="http://www.w3.org/2000/svg"
 width="892.000000pt" height="892.000000pt" viewBox="0 0 892.000000 892.000000"
 preserveAspectRatio="xMidYMid meet">
<metadata>
Created by potrace 1.11, written by Peter Selinger 2001-2013
</metadata>
<g transform="translate(0.000000,892.000000) scale(0.100000,-0.100000)"
fill="#000000" stroke="none">
<path d="M4025 8910 c6 -10 4 -12 -10 -6 -18 6 -18 6 1 -16 10 -12 12 -18 4
-12 -19 15 -89 23 -87 11 1 -5 -4 -12 -12 -15 -8 -2 -11 0 -7 6 7 11 -19 10
-30 -1 -4 -4 -14 -1 -22 6 -13 10 -15 9 -10 -4 4 -9 1 -16 -8 -16 -7 0 -11 4
-9 8 6 9 -22 6 -31 -3 -3 -4 -12 -4 -19 -2 -7 3 -20 -4 -28 -16 -9 -13 -17
-17 -22 -11 -3 6 0 11 7 11 10 0 9 3 -2 10 -9 5 -19 5 -26 0 -6 -6 -15 -6 -19
-2 -5 4 -5 1 -1 -6 4 -7 13 -9 19 -5 7 4 6 0 -2 -10 -15 -18 -26 -23 -16 -7 3
6 -1 10 -10 10 -10 0 -14 5 -10 13 4 6 0 4 -8 -6 -9 -10 -18 -14 -21 -8 -3 5
-14 8 -24 6 -9 -2 -21 -4 -25 -4 -5 -1 -5 -7 -2 -13 4 -7 0 -5 -8 5 -9 11 -16
14 -19 7 -2 -6 -10 -12 -18 -13 -8 -2 -21 -6 -27 -10 -7 -5 -19 -5 -25 -1 -9
5 -8 2 1 -9 12 -15 12 -17 -3 -11 -10 4 -16 1 -17 -7 0 -8 -4 -5 -8 5 -7 19
-8 19 -30 -3 -12 -12 -21 -16 -19 -9 2 7 -2 14 -7 16 -6 1 -10 -3 -10 -10 0
-6 -6 -13 -14 -16 -8 -3 -11 0 -7 7 4 6 3 11 -2 11 -15 0 -22 -13 -13 -24 7
-8 2 -11 -15 -11 -13 1 -27 4 -30 8 -3 3 -17 -1 -29 -9 -16 -10 -25 -12 -30
-4 -3 6 -11 7 -17 4 -6 -4 -15 0 -20 7 -8 11 -9 10 -4 -3 3 -10 0 -18 -6 -18
-6 0 -5 -6 3 -17 13 -15 11 -15 -13 1 -17 11 -28 14 -33 6 -3 -6 -11 -7 -17
-4 -8 5 -9 1 -5 -12 7 -18 7 -18 -8 0 -8 11 -15 14 -15 7 0 -7 -4 -9 -10 -6
-5 3 -10 -2 -11 -12 0 -11 -3 -13 -6 -5 -2 6 -9 9 -14 6 -6 -3 -5 -12 3 -22 8
-11 4 -10 -11 3 -14 11 -21 15 -18 8 4 -6 3 -14 -3 -18 -5 -3 -10 0 -10 7 0 8
-5 6 -11 -5 -8 -14 -14 -16 -25 -6 -11 9 -14 8 -14 -7 0 -16 -2 -16 -9 -4 -6
8 -7 18 -4 24 3 5 1 6 -5 2 -6 -3 -9 -15 -7 -26 5 -24 -13 -36 -28 -21 -9 9
-7 11 8 6 16 -6 17 -5 5 4 -11 7 -19 6 -32 -6 -12 -11 -18 -12 -18 -4 0 7 -5
9 -10 6 -6 -4 -7 -12 -3 -18 4 -7 -2 -5 -13 3 -10 8 -16 10 -11 5 4 -4 0 -17
-9 -27 -13 -14 -20 -15 -31 -7 -10 9 -13 8 -13 -2 0 -12 -2 -12 -9 -1 -7 11
-9 11 -14 -1 -3 -9 -16 -13 -32 -12 -26 3 -26 3 -8 -18 18 -21 18 -21 -7 -4
-24 16 -50 24 -37 10 4 -3 2 -12 -4 -19 -12 -15 -42 -7 -32 9 3 6 1 7 -6 3 -6
-4 -9 -11 -6 -16 7 -12 -30 -32 -40 -22 -5 4 -5 -2 -1 -12 5 -16 4 -17 -9 -6
-11 9 -15 9 -15 1 0 -7 -5 -9 -12 -5 -7 5 -9 2 -5 -8 4 -12 0 -15 -16 -11 -18
4 -19 3 -7 -6 8 -6 10 -11 5 -11 -6 0 -17 6 -24 13 -11 10 -13 9 -8 -5 5 -15
2 -16 -20 -7 -14 5 -28 7 -31 4 -3 -3 0 -5 6 -5 23 0 11 -15 -24 -33 -19 -9
-33 -13 -30 -8 4 5 1 13 -5 17 -8 5 -9 3 -4 -6 6 -10 4 -12 -10 -6 -14 5 -15
3 -7 -6 7 -9 6 -17 -3 -25 -11 -10 -14 -10 -18 0 -3 9 -8 9 -20 -2 -14 -11
-17 -11 -17 -1 0 8 -3 10 -6 7 -4 -4 -1 -13 6 -22 11 -13 10 -14 -5 -9 -13 5
-16 4 -11 -4 5 -8 1 -10 -10 -5 -12 5 -15 3 -9 -6 6 -10 3 -11 -14 -2 -18 10
-23 9 -30 -11 -5 -13 -6 -27 -3 -33 3 -5 -1 -5 -8 2 -9 8 -17 6 -31 -8 -10
-10 -28 -19 -40 -19 -13 0 -18 -4 -13 -12 6 -10 5 -10 -8 -1 -12 11 -18 10
-30 -5 -9 -9 -14 -26 -12 -37 3 -19 2 -20 -11 -1 -12 16 -17 17 -30 6 -8 -7
-12 -17 -8 -24 3 -6 3 -8 -2 -4 -4 4 -13 0 -20 -9 -9 -13 -14 -13 -20 -3 -6 9
-4 11 5 5 9 -6 11 -4 6 4 -6 9 -12 9 -25 -3 -10 -9 -21 -13 -26 -9 -4 5 -2 -3
5 -17 12 -23 12 -24 -3 -11 -12 9 -17 10 -17 2 0 -7 -5 -9 -10 -6 -6 4 -9 1
-8 -7 2 -8 -6 -13 -18 -12 -13 0 -20 -5 -18 -11 3 -7 -3 -18 -13 -26 -16 -13
-17 -12 -4 4 12 15 12 17 -3 11 -15 -6 -20 -17 -17 -36 0 -5 -6 -9 -14 -9 -8
-1 -20 -2 -27 -3 -7 0 -17 -11 -24 -24 -15 -31 -26 -41 -19 -17 6 20 6 20 -9
1 -8 -10 -13 -23 -9 -29 4 -6 1 -7 -6 -3 -7 5 -21 0 -33 -11 -14 -12 -19 -13
-13 -3 10 18 -36 -18 -48 -38 -5 -7 -14 -9 -20 -5 -7 4 -6 -1 2 -10 12 -15 12
-17 -3 -11 -9 4 -16 1 -16 -6 0 -7 -6 -10 -14 -7 -10 4 -13 0 -11 -14 2 -11 0
-17 -5 -14 -15 10 -39 -6 -33 -22 4 -11 2 -14 -5 -9 -7 4 -12 2 -12 -4 0 -6
-5 -8 -10 -5 -5 3 -10 1 -10 -4 0 -6 5 -11 12 -11 6 0 8 -3 5 -6 -4 -4 -13 -1
-22 6 -13 11 -14 10 -9 -4 4 -11 2 -16 -7 -14 -8 2 -13 -3 -11 -11 2 -9 -3
-11 -13 -7 -9 3 -13 2 -10 -4 3 -6 -1 -10 -10 -10 -9 0 -13 -5 -10 -10 4 -6
11 -7 17 -4 7 4 8 2 4 -4 -4 -6 -14 -8 -23 -5 -12 5 -14 3 -8 -8 7 -12 6 -12
-7 -1 -13 11 -16 10 -14 -5 0 -9 -9 -22 -22 -29 -13 -6 -23 -14 -23 -18 2 -17
0 -18 -14 -6 -13 11 -14 10 -9 -5 5 -13 4 -16 -4 -11 -8 5 -10 1 -5 -10 4 -11
2 -15 -4 -11 -6 4 -13 -2 -16 -13 -3 -13 -10 -18 -21 -14 -12 4 -16 0 -16 -16
0 -19 -2 -20 -15 -10 -13 11 -14 10 -9 -4 4 -11 1 -16 -10 -16 -10 0 -13 -6
-10 -15 4 -9 0 -15 -10 -15 -8 0 -20 -9 -26 -20 -7 -12 -16 -18 -23 -13 -7 4
-6 0 2 -10 12 -15 12 -17 -3 -11 -9 4 -16 3 -14 -2 4 -13 -21 -54 -33 -54 -6
0 -3 7 5 16 26 25 18 30 -8 5 -15 -14 -22 -29 -19 -39 4 -10 2 -13 -5 -8 -7 4
-12 1 -12 -8 0 -9 -5 -16 -11 -16 -5 0 -7 6 -3 13 4 7 3 9 -2 4 -5 -5 -9 -12
-9 -15 -3 -36 -22 -57 -47 -53 -4 0 -5 -6 -2 -14 4 -8 -1 -17 -10 -21 -9 -3
-13 -11 -9 -18 4 -6 -1 -5 -10 3 -15 12 -17 12 -10 -4 5 -14 3 -17 -9 -12 -12
4 -14 1 -10 -15 4 -17 2 -20 -11 -15 -12 4 -14 2 -10 -10 4 -11 3 -14 -6 -9
-8 6 -11 2 -9 -10 2 -10 -2 -19 -9 -19 -6 0 -15 -4 -20 -9 -5 -5 -3 -6 5 -2 6
4 12 2 12 -3 0 -6 -7 -11 -15 -11 -8 0 -15 -5 -15 -11 0 -5 5 -7 12 -3 7 5 8
3 4 -5 -5 -7 -14 -10 -21 -7 -7 2 -16 -1 -19 -9 -3 -10 0 -12 12 -9 9 3 6 -1
-7 -9 -18 -11 -21 -16 -10 -21 8 -3 4 -4 -8 -2 -16 3 -20 0 -16 -12 5 -12 2
-14 -12 -9 -16 7 -16 5 -4 -10 12 -15 12 -16 -2 -11 -12 5 -15 1 -13 -18 2
-21 0 -23 -19 -12 -19 10 -20 9 -9 -4 10 -13 10 -19 -3 -32 -9 -9 -23 -12 -33
-9 -16 6 -16 6 0 -11 23 -23 23 -26 -3 -21 -18 4 -19 2 -7 -12 9 -12 9 -15 1
-9 -8 4 -13 2 -13 -4 0 -6 -5 -8 -12 -4 -9 5 -8 2 1 -9 12 -16 12 -17 -5 -10
-16 6 -17 5 -6 -9 14 -18 0 -34 -18 -23 -6 4 -10 3 -9 -2 4 -22 -2 -34 -13
-27 -9 5 -9 2 1 -9 12 -16 8 -22 -13 -18 -5 1 -6 -5 -3 -13 4 -10 -2 -20 -15
-27 -17 -9 -18 -13 -7 -20 11 -7 10 -9 -5 -9 -16 0 -17 -2 -5 -17 13 -15 12
-15 -11 -3 -22 12 -24 12 -12 -2 10 -13 10 -17 -3 -22 -8 -3 -15 -13 -15 -21
0 -10 -5 -13 -12 -9 -8 5 -8 2 1 -10 12 -15 12 -17 0 -14 -8 2 -13 -3 -12 -9
2 -7 -2 -13 -8 -13 -5 0 -7 -5 -3 -12 5 -8 2 -9 -11 -4 -15 5 -16 4 -5 -9 7
-9 10 -18 6 -22 -3 -3 -6 -2 -6 4 0 5 -7 10 -15 10 -13 0 -12 -4 2 -20 10 -11
13 -17 6 -14 -6 4 -14 3 -18 -3 -3 -5 -1 -10 4 -10 6 0 3 -9 -6 -20 -10 -11
-24 -20 -33 -20 -13 0 -13 -1 0 -10 13 -9 13 -10 0 -11 -10 0 -8 -3 5 -9 18
-8 18 -9 2 -9 -10 -1 -15 -5 -12 -11 3 -5 2 -10 -4 -10 -6 0 -7 -8 -4 -17 6
-16 5 -16 -10 -4 -15 12 -17 12 -11 -3 3 -9 1 -16 -5 -16 -9 0 -9 -6 0 -22 11
-21 11 -22 -5 -9 -15 13 -16 12 -6 -13 14 -37 13 -43 -5 -20 -13 18 -14 18
-15 1 0 -12 -4 -16 -13 -11 -9 6 -9 4 1 -8 14 -17 13 -39 -3 -50 -5 -4 -10
-12 -10 -17 0 -6 -9 -17 -20 -26 -11 -9 -14 -14 -8 -10 9 4 11 1 7 -9 -3 -9
-10 -14 -15 -11 -4 3 -6 -4 -4 -15 2 -11 0 -18 -5 -15 -11 7 -32 -30 -23 -39
4 -4 8 -13 9 -22 2 -13 0 -13 -13 -2 -15 12 -15 10 -3 -11 11 -21 10 -23 -4
-18 -10 4 -15 3 -12 -1 2 -4 1 -14 -4 -22 -5 -9 -5 -19 2 -27 7 -9 6 -14 -5
-19 -9 -3 -14 -16 -13 -36 2 -28 1 -29 -12 -12 -13 18 -14 17 -7 -5 5 -15 4
-21 -3 -17 -6 3 -14 1 -18 -5 -4 -7 -3 -9 3 -6 6 4 14 0 17 -9 4 -10 2 -13 -6
-8 -8 5 -9 2 -5 -10 6 -14 3 -17 -8 -12 -9 3 -14 2 -10 -3 3 -5 -1 -12 -7 -15
-7 -3 -2 -4 12 -1 14 3 19 2 12 -1 -6 -3 -10 -10 -6 -15 3 -5 0 -8 -7 -7 -6 2
-14 -3 -17 -11 -3 -9 0 -11 8 -6 9 6 11 4 6 -4 -5 -7 -15 -10 -23 -6 -12 4
-13 2 -5 -8 9 -10 8 -17 -1 -27 -6 -7 -7 -10 -1 -7 6 3 11 0 11 -8 0 -8 -5
-11 -10 -8 -6 4 -8 -5 -5 -20 3 -15 1 -24 -3 -21 -5 3 -9 0 -9 -6 0 -6 -4 -8
-10 -5 -6 4 -6 -3 0 -21 9 -22 8 -25 -3 -16 -10 8 -13 7 -13 -8 0 -10 4 -16 8
-14 4 3 8 0 8 -5 0 -6 -6 -11 -12 -11 -10 0 -10 -2 0 -9 11 -6 10 -10 -5 -16
-17 -7 -17 -8 2 -15 15 -7 16 -9 4 -9 -18 -1 -35 -31 -19 -31 6 0 10 5 10 12
0 6 3 8 6 5 12 -12 -17 -36 -34 -29 -16 5 -16 5 0 -11 16 -17 14 -57 -3 -57
-5 0 -9 -5 -9 -11 0 -5 6 -7 12 -3 10 6 10 4 1 -7 -17 -17 -17 -32 0 -23 9 5
9 3 -1 -7 -11 -12 -14 -12 -23 1 -8 11 -9 9 -4 -10 4 -14 7 -27 7 -30 0 -22
-4 -30 -19 -30 -15 0 -14 -2 3 -16 10 -8 14 -13 8 -10 -17 8 -25 -19 -11 -34
9 -10 9 -11 0 -6 -15 8 -18 -10 -3 -19 5 -3 7 -12 4 -20 -4 -8 -10 -12 -15 -9
-14 8 -10 -3 7 -20 9 -9 11 -16 4 -16 -6 0 -8 -4 -5 -10 3 -5 0 -7 -8 -4 -8 3
-14 -1 -14 -10 0 -8 8 -13 19 -11 10 2 16 0 13 -6 -4 -5 -11 -7 -16 -4 -5 4
-9 1 -9 -5 0 -6 -4 -9 -9 -5 -5 3 -13 1 -16 -5 -4 -6 -3 -10 2 -9 20 3 34 -2
28 -11 -4 -6 -11 -8 -16 -4 -5 3 -9 2 -8 -3 1 -4 0 -10 -1 -13 -7 -20 -7 -41
2 -47 7 -4 8 -1 3 7 -6 9 -4 11 4 5 9 -5 9 -11 3 -17 -6 -6 -8 -17 -5 -26 5
-11 3 -13 -7 -7 -9 5 -11 4 -6 -3 12 -19 16 -53 5 -47 -5 4 -9 -1 -9 -10 0 -9
5 -13 11 -10 6 4 5 -3 -3 -14 -11 -18 -11 -23 0 -30 11 -6 10 -10 -5 -16 -10
-5 -20 -8 -23 -7 -10 1 -5 -162 4 -177 6 -9 5 -12 -2 -7 -7 4 -10 -72 -10
-264 1 -224 4 -268 15 -258 11 8 12 7 7 -6 -3 -9 -9 -16 -13 -16 -4 0 -7 -24
-6 -54 0 -42 3 -52 14 -48 10 4 12 1 5 -9 -4 -8 -9 -23 -11 -34 -1 -11 1 -14
3 -7 3 6 13 12 22 12 13 0 14 -2 4 -8 -18 -12 -24 -52 -7 -46 11 4 13 0 9 -18
-10 -43 -12 -78 -4 -73 15 9 18 -20 4 -36 -12 -13 -12 -16 1 -16 8 0 11 5 8
10 -3 6 -1 7 6 3 6 -4 8 -13 4 -19 -10 -15 -10 -87 -1 -80 5 2 8 -3 8 -11 0
-9 -5 -16 -12 -16 -6 0 -8 -3 -5 -6 4 -4 14 -1 23 7 16 13 16 12 6 -8 -14 -25
-16 -47 -4 -39 4 2 8 -4 8 -14 0 -10 -3 -17 -7 -14 -9 5 -6 -17 4 -33 4 -6 1
-14 -5 -16 -7 -3 -4 -6 7 -7 19 -1 19 -1 2 -14 -12 -9 -14 -16 -8 -21 6 -3 11
-1 11 4 0 6 4 11 10 11 6 0 6 -9 1 -23 -10 -25 9 -62 25 -49 4 4 3 0 -3 -9
-10 -12 -8 -22 7 -47 20 -33 17 -45 -4 -16 -10 13 -12 13 -12 -5 0 -11 5 -19
11 -18 5 1 9 -6 7 -15 -3 -20 14 -25 20 -6 3 9 6 9 12 0 4 -7 2 -12 -3 -12 -6
0 -11 -10 -11 -22 0 -19 2 -20 10 -8 6 9 10 10 10 3 0 -6 -5 -15 -11 -19 -8
-4 -7 -9 2 -15 12 -8 11 -11 -1 -19 -14 -9 -13 -11 9 -14 5 0 13 -5 18 -10 4
-5 3 -6 -4 -2 -9 5 -12 -4 -10 -32 2 -32 5 -39 20 -36 12 2 15 -1 10 -9 -11
-17 -12 -57 -1 -51 4 3 5 10 2 16 -4 6 -2 8 3 5 6 -4 9 -20 7 -37 -2 -19 0
-29 6 -25 6 3 10 -1 10 -10 0 -10 5 -13 12 -9 7 4 4 -3 -7 -16 l-20 -23 25 13
c18 9 22 9 14 0 -14 -15 -6 -52 10 -43 6 3 6 0 -1 -8 -7 -7 -13 -18 -13 -23 0
-6 5 -4 11 4 9 12 10 10 6 -8 -4 -17 -2 -21 7 -13 8 7 12 5 13 -10 1 -11 -2
-17 -6 -15 -4 3 -8 -1 -8 -9 0 -8 4 -12 9 -9 4 3 8 0 8 -6 0 -6 4 -9 8 -6 5 3
9 -2 9 -10 0 -10 -4 -11 -11 -4 -5 5 -14 10 -19 10 -5 0 -2 -7 7 -15 8 -8 19
-15 25 -15 6 0 7 -7 4 -17 -4 -10 -2 -14 4 -10 5 3 10 0 10 -8 0 -8 -3 -12 -7
-10 -4 2 -7 -2 -7 -10 0 -8 5 -11 10 -8 6 4 8 -1 4 -11 -4 -10 -3 -15 3 -11 6
3 10 2 10 -4 0 -5 6 -11 13 -14 6 -2 1 -3 -13 -1 -25 3 -25 3 -3 -8 13 -6 23
-15 23 -20 0 -5 -6 -6 -12 -2 -9 5 -9 3 1 -9 7 -9 17 -15 21 -12 4 2 5 -7 2
-22 -4 -23 -2 -25 17 -20 18 4 20 3 11 -8 -8 -10 -7 -14 2 -18 10 -4 9 -6 -1
-6 -11 -1 -10 -5 5 -17 10 -8 12 -13 4 -9 -8 4 -6 -1 5 -10 11 -9 19 -23 17
-32 -2 -10 1 -12 10 -7 9 5 8 2 -2 -11 -9 -11 -10 -16 -2 -11 8 5 12 1 12 -13
0 -11 4 -23 10 -26 6 -4 7 1 3 12 -6 15 -5 16 9 3 10 -9 12 -17 6 -21 -14 -9
0 -31 15 -23 7 3 3 -2 -7 -10 -19 -16 -19 -16 5 -17 22 0 23 -1 4 -9 -11 -5
-14 -9 -7 -9 7 -1 20 -7 28 -15 15 -16 19 -30 6 -22 -5 3 -9 -1 -9 -9 0 -8 4
-12 9 -9 4 3 8 0 8 -6 0 -6 5 -8 13 -4 8 5 7 2 -2 -9 -8 -10 -11 -20 -7 -24 3
-3 6 -1 6 6 0 7 5 9 10 6 8 -5 7 -12 -2 -23 -12 -14 -10 -14 12 -2 21 11 23
11 13 -1 -9 -11 -7 -19 7 -36 9 -12 20 -19 24 -16 3 4 6 1 6 -5 0 -7 -5 -12
-11 -12 -5 0 -7 -5 -4 -10 4 -6 11 -8 16 -5 5 4 9 -1 9 -10 0 -9 4 -13 10 -10
6 4 7 -1 3 -11 -5 -13 -3 -15 8 -9 11 7 11 5 -1 -10 -14 -17 -13 -17 10 -11
20 6 22 5 10 -4 -11 -9 -12 -13 -2 -17 6 -2 10 -9 6 -14 -3 -5 3 -9 13 -10 11
0 13 -3 5 -6 -10 -4 -9 -9 5 -20 10 -8 11 -11 3 -7 -13 7 -13 5 -2 -8 8 -9 19
-16 25 -14 7 1 9 1 5 -1 -5 -3 -8 -9 -8 -14 0 -6 6 -7 13 -3 7 5 7 2 -2 -10
-8 -9 -10 -16 -5 -15 27 5 36 -1 24 -16 -11 -13 -10 -14 3 -10 13 5 30 -8 32
-25 3 -21 18 -50 26 -50 6 0 8 -4 4 -9 -3 -5 0 -13 6 -17 8 -4 9 -3 5 4 -4 7
-2 12 5 12 7 0 9 -8 6 -21 -4 -15 0 -23 14 -26 10 -3 16 -10 12 -16 -4 -6 0
-8 10 -4 11 4 14 2 10 -9 -3 -7 0 -14 6 -14 6 0 10 -6 9 -12 -2 -7 4 -13 13
-12 9 1 16 -5 16 -12 0 -7 -5 -10 -11 -7 -6 4 -5 0 1 -9 7 -8 10 -19 6 -24 -4
-5 -1 -3 7 4 24 20 34 13 14 -10 -10 -12 -14 -18 -7 -15 6 4 19 4 28 1 13 -5
14 -8 3 -15 -10 -7 -11 -9 0 -9 8 0 10 -5 6 -13 -6 -8 -3 -8 9 1 14 12 16 11
12 -7 -2 -11 -1 -20 3 -20 27 4 32 -2 22 -22 -11 -19 -10 -20 9 -10 17 10 20
9 15 -4 -4 -10 -2 -15 7 -13 9 2 13 -4 11 -16 -3 -13 1 -17 11 -13 21 8 29 -3
15 -20 -8 -11 -7 -12 5 -8 8 4 18 1 22 -4 3 -6 11 -8 17 -5 7 4 8 2 4 -5 -6
-9 -11 -9 -22 0 -12 10 -13 9 -8 -5 3 -9 12 -16 19 -16 7 0 16 -7 19 -16 3 -8
10 -12 16 -9 6 4 7 -1 3 -11 -4 -12 -3 -15 5 -10 7 4 12 3 12 -1 0 -5 7 -18
15 -29 15 -19 15 -19 9 1 -5 18 -4 18 6 2 6 -9 8 -22 5 -27 -4 -6 1 -7 11 -3
12 4 15 3 10 -5 -4 -8 0 -12 11 -12 15 0 16 -2 3 -10 -13 -8 -12 -10 3 -10 9
0 17 -5 17 -11 0 -5 6 -7 13 -3 9 6 9 4 -1 -8 -11 -14 -10 -16 11 -14 20 2 23
-1 21 -20 -1 -13 1 -23 4 -23 22 3 32 -2 26 -13 -6 -10 -4 -10 8 0 13 10 15 9
14 -10 -1 -18 4 -22 19 -20 11 2 17 1 13 -3 -4 -4 -1 -14 7 -21 17 -17 29 -18
19 -2 -4 7 -3 8 5 4 9 -6 9 -11 -1 -24 -10 -12 -10 -14 0 -8 6 4 12 2 12 -3 0
-6 7 -11 16 -11 8 0 13 -4 9 -9 -3 -5 4 -12 15 -16 11 -4 20 -16 21 -28 1 -20
2 -20 9 3 8 24 8 24 9 3 1 -16 7 -23 22 -23 18 0 19 -2 9 -15 -7 -9 -10 -18
-6 -22 3 -3 6 -2 6 4 0 5 7 10 15 10 14 0 19 -10 16 -29 -1 -8 15 -12 32 -9 4
0 7 -4 7 -10 0 -5 5 -7 10 -4 6 4 9 1 8 -7 -2 -7 3 -12 11 -10 12 3 12 1 1
-13 -12 -15 -12 -16 2 -13 10 1 24 -6 33 -17 9 -11 14 -15 11 -9 -3 6 1 11 8
11 8 0 12 -6 9 -13 -2 -6 1 -15 8 -20 8 -5 10 -3 4 6 -5 9 -4 11 3 6 7 -4 12
-14 12 -22 0 -8 13 -17 30 -21 25 -5 29 -9 24 -27 -6 -21 -6 -21 11 -1 14 16
16 17 11 3 -3 -11 0 -17 7 -15 7 1 11 -4 9 -11 -1 -8 2 -11 6 -8 5 3 20 -3 32
-14 12 -11 28 -17 34 -13 6 3 8 3 4 -1 -8 -10 14 -36 25 -29 4 2 7 -3 7 -12 0
-9 4 -14 9 -10 6 3 14 -2 19 -11 6 -10 16 -15 25 -11 9 3 19 1 23 -5 4 -7 3
-8 -4 -4 -7 4 -12 2 -12 -3 0 -6 5 -11 11 -11 5 0 7 -6 3 -13 -5 -8 -2 -8 9 2
11 9 17 10 17 2 0 -6 9 -11 20 -11 11 0 20 -6 20 -14 0 -8 5 -18 12 -22 7 -4
8 -3 4 4 -9 15 14 15 34 1 12 -9 11 -10 -5 -4 -16 5 -17 4 -8 -6 7 -7 22 -14
34 -16 11 -2 28 -10 36 -19 9 -8 22 -13 29 -10 9 3 11 0 7 -11 -4 -11 -2 -14
5 -9 7 4 12 2 12 -4 0 -6 5 -8 10 -5 6 3 10 0 10 -8 0 -8 10 -17 23 -20 21 -6
21 -6 3 8 -11 8 -15 15 -9 15 15 0 36 -27 29 -39 -3 -5 3 -7 14 -4 11 3 20 0
20 -6 0 -6 5 -11 11 -11 5 0 7 5 3 12 -4 7 -3 8 5 4 6 -4 9 -11 6 -16 -3 -5
-1 -11 5 -15 5 -3 10 -1 10 5 0 6 5 8 10 5 6 -4 7 -12 3 -18 -4 -7 0 -6 10 2
12 9 17 10 17 2 0 -7 5 -9 12 -5 9 6 9 3 0 -9 -12 -14 -11 -16 7 -12 12 2 21
0 21 -6 0 -5 5 -9 11 -9 5 0 8 4 5 9 -16 25 28 1 45 -25 10 -16 19 -23 19 -16
0 6 5 12 11 12 5 0 7 -5 3 -12 -5 -8 -2 -9 9 -5 11 4 17 1 17 -9 0 -8 5 -12
10 -9 6 3 13 -1 16 -10 6 -14 8 -14 20 2 13 17 14 17 8 1 -7 -20 12 -25 19 -5
4 9 6 9 6 -1 1 -8 6 -10 14 -6 8 5 8 2 -2 -9 -14 -17 -10 -21 23 -17 13 1 16
-2 10 -12 -5 -9 -2 -8 11 2 11 9 16 10 11 3 -4 -8 -1 -13 9 -13 9 0 24 -8 33
-18 10 -10 13 -12 8 -5 -6 10 -4 12 8 7 9 -3 16 -11 16 -18 0 -6 5 -4 10 4 6
10 10 11 10 3 0 -7 5 -13 11 -13 5 0 7 6 3 13 -4 6 2 4 13 -6 11 -9 23 -14 26
-10 4 3 7 1 7 -5 0 -7 10 -12 23 -12 57 -1 66 -4 54 -19 -10 -12 -9 -13 9 -3
18 9 25 7 44 -13 14 -15 28 -21 34 -17 13 10 54 8 64 -3 4 -5 -1 -5 -10 -2
-23 8 -23 -6 -1 -24 11 -10 14 -10 9 -1 -10 16 6 15 30 -2 15 -11 22 -12 33
-3 12 9 13 9 7 -1 -4 -6 -3 -12 3 -12 5 0 12 6 14 13 3 6 6 3 6 -9 1 -11 8
-21 16 -21 11 0 12 4 3 14 -8 11 -7 12 6 7 9 -3 16 -10 16 -15 0 -5 7 -9 16
-9 9 0 12 5 8 12 -4 7 -3 8 4 4 7 -4 12 -15 12 -24 0 -15 2 -15 10 -2 9 13 10
13 10 0 0 -13 1 -13 10 0 5 8 10 10 10 4 0 -7 7 -15 16 -18 14 -5 15 -4 5 8
-10 12 -7 12 23 2 20 -7 39 -15 42 -19 12 -12 26 -8 19 6 -4 6 1 3 10 -8 18
-22 34 -26 53 -12 8 6 12 5 12 -5 0 -7 9 -14 19 -14 11 0 18 3 16 6 -2 4 2 7
10 7 8 0 12 -3 10 -7 -2 -3 0 -12 6 -20 5 -8 9 -10 9 -5 0 6 12 10 28 9 42 -2
44 -3 36 -15 -4 -8 0 -8 15 0 16 9 21 9 21 0 0 -9 3 -9 14 0 10 9 16 8 26 -4
16 -19 30 -19 30 1 0 8 5 12 10 9 6 -4 8 -10 5 -15 -3 -4 3 -14 13 -21 15 -12
15 -12 5 1 -9 12 -7 18 15 28 19 9 23 9 14 0 -7 -7 -12 -15 -12 -19 0 -12 34
-3 38 9 2 8 11 3 24 -10 11 -13 17 -18 14 -12 -6 12 23 29 32 19 3 -3 0 -5 -6
-5 -7 0 -12 -8 -11 -17 0 -11 3 -13 6 -5 2 6 11 12 19 12 9 0 13 -4 10 -9 -7
-11 13 -9 32 2 7 5 12 3 12 -5 0 -9 3 -9 10 2 9 13 10 13 10 0 0 -13 1 -13 10
0 8 12 10 12 10 1 0 -10 3 -11 14 -2 11 9 16 9 22 0 5 -8 3 -9 -6 -4 -9 5 -11
4 -6 -3 5 -9 15 -7 34 5 l27 17 -25 -29 c-24 -28 -23 -27 20 5 25 19 38 26 30
16 -14 -17 -12 -18 30 -12 29 4 40 3 30 -3 -8 -6 -18 -7 -22 -5 -15 9 -8 -3 9
-17 11 -10 14 -10 9 -2 -8 14 6 18 18 6 10 -10 167 -13 161 -3 -3 5 -1 12 5
15 6 4 9 1 8 -7 -2 -10 25 -14 125 -15 95 -2 126 0 121 9 -5 8 -3 8 7 2 16
-11 149 -13 143 -2 -2 4 5 6 16 5 11 -1 20 -6 20 -12 0 -5 5 -3 10 5 9 13 11
13 21 0 9 -13 10 -12 5 3 -3 11 0 17 10 17 9 0 12 -5 8 -12 -4 -7 -3 -8 5 -4
6 4 9 11 6 16 -3 5 0 12 6 16 8 4 9 3 5 -4 -4 -7 -2 -12 4 -12 6 0 8 -5 4 -11
-4 -8 0 -8 15 0 12 7 26 9 31 6 5 -3 12 0 16 6 4 7 3 9 -4 5 -6 -3 -13 -3 -16
2 -2 4 6 8 19 8 14 0 21 -4 17 -10 -3 -6 2 -5 11 3 14 11 17 11 17 0 0 -8 5
-6 13 6 11 14 16 15 22 5 6 -9 4 -11 -5 -5 -9 6 -11 4 -5 -4 5 -9 10 -10 18
-2 6 6 19 11 30 11 10 0 15 4 12 10 -3 5 0 7 9 4 9 -3 12 -12 9 -22 -5 -12 -2
-11 14 4 11 10 18 23 15 27 -2 5 5 4 16 -2 27 -14 35 -14 27 1 -4 7 1 4 9 -6
16 -19 16 -19 16 5 0 13 4 19 8 13 8 -13 55 -26 47 -14 -3 5 -1 11 5 15 5 3
10 0 10 -7 0 -9 3 -9 10 2 8 12 10 12 10 1 0 -11 4 -10 23 2 16 10 28 12 40 5
12 -6 17 -5 17 4 0 9 3 9 10 -2 9 -13 10 -13 11 0 1 8 1 19 0 23 -1 4 8 3 19
-3 13 -7 20 -7 20 -1 0 6 7 7 17 4 11 -5 14 -3 8 6 -6 10 -3 11 15 1 21 -11
22 -10 16 6 -6 16 -5 16 15 -2 12 -10 19 -13 14 -5 -6 11 -3 13 13 9 12 -4 20
-3 17 2 -3 4 2 10 9 13 11 4 13 0 11 -15 -3 -11 -1 -17 3 -14 7 7 8 11 11 37
1 8 7 7 18 -2 15 -12 16 -12 10 5 -6 16 -5 17 8 6 12 -10 15 -10 15 1 0 12 2
12 9 0 7 -11 10 -10 14 5 4 18 5 18 6 -1 1 -19 3 -18 22 5 13 16 19 19 15 8
-3 -10 0 -20 6 -24 7 -5 8 -2 3 6 -6 10 -4 12 10 6 15 -5 16 -4 5 9 -11 13
-10 14 5 9 14 -6 16 -4 11 7 -4 8 0 5 10 -6 16 -20 16 -20 11 3 -4 18 -2 21 7
13 9 -7 16 -7 26 2 10 10 11 9 5 -3 -5 -9 0 -8 14 4 22 20 22 20 15 0 -5 -17
-4 -17 13 2 25 29 56 44 72 35 16 -10 51 -2 51 11 0 5 -5 6 -12 2 -6 -4 -8 -3
-4 4 3 6 15 9 25 7 11 -2 27 3 38 10 10 8 23 14 28 15 6 0 3 -5 -5 -10 -12 -7
-10 -9 8 -7 13 1 21 6 18 13 -3 8 3 10 17 6 20 -5 21 -4 7 13 -9 11 -10 16 -3
11 7 -4 22 -9 34 -11 16 -3 18 -1 10 9 -8 9 -7 13 4 13 8 0 15 -5 15 -10 0 -5
6 -4 13 2 8 6 17 8 20 4 4 -3 7 1 7 10 0 10 5 17 11 17 5 0 8 -4 5 -8 -3 -5 1
-9 8 -9 8 0 12 6 9 13 -7 18 18 29 28 13 6 -10 9 -10 9 -2 0 7 7 10 15 7 10
-4 13 0 10 18 -4 22 -4 22 10 4 14 -18 15 -18 15 -2 0 12 5 16 15 12 8 -3 15
-1 15 4 0 6 9 10 20 10 11 0 28 9 37 20 12 14 20 16 30 9 9 -8 14 -7 19 5 5
14 9 14 22 4 13 -11 14 -10 4 9 -11 20 -10 21 10 18 25 -5 51 12 41 28 -3 6
-1 7 5 3 6 -4 10 -12 8 -19 -1 -7 -1 -9 1 -4 3 4 8 5 13 2 10 -6 7 15 -5 35
-8 13 -7 13 9 1 15 -13 19 -13 27 0 7 12 9 12 9 -1 0 -13 2 -13 9 0 6 8 7 18
4 24 -3 5 -1 6 5 2 6 -4 10 -12 8 -19 -1 -7 -1 -9 1 -4 3 4 8 5 13 2 4 -3 7 3
6 12 0 10 5 18 12 18 7 0 16 5 20 11 4 6 15 10 25 8 14 -2 16 1 7 11 -8 10 -8
15 1 21 8 4 9 3 5 -4 -4 -7 -3 -12 3 -12 5 0 13 5 16 11 4 6 13 8 20 5 15 -6
29 20 14 28 -5 2 -4 3 3 2 7 -2 22 4 32 13 11 9 16 11 13 4 -4 -6 -2 -15 5
-19 7 -4 10 -4 7 0 -8 8 33 56 47 56 5 0 2 -5 -6 -10 -9 -6 -10 -10 -3 -10 6
0 15 5 18 10 4 6 12 7 18 3 8 -4 7 -1 -1 9 -10 13 -10 18 -1 24 8 4 9 3 5 -4
-4 -7 -2 -12 3 -12 6 0 11 7 11 15 0 8 5 15 11 15 5 0 7 -6 3 -13 -6 -9 -5 -9
8 0 8 7 18 10 21 6 7 -6 11 13 8 31 -1 5 5 4 13 -3 13 -11 15 -10 11 8 -2 12
0 19 4 17 5 -3 16 3 26 14 10 11 29 20 42 20 16 0 22 4 17 12 -5 7 -2 9 9 5
12 -4 14 -2 10 10 -5 13 -2 15 12 9 11 -4 16 -4 13 0 -10 9 15 32 47 44 19 7
25 15 21 27 -6 14 -4 14 11 2 15 -12 16 -12 11 2 -5 12 -1 15 17 13 18 -1 22
2 18 14 -4 9 -2 13 4 9 11 -7 55 26 53 39 -1 5 4 10 11 13 7 2 9 -1 4 -9 -5
-9 -4 -11 4 -6 6 4 9 12 6 17 -4 5 6 14 20 19 18 7 25 15 21 26 -3 8 -2 13 3
10 5 -3 12 1 15 10 3 8 10 12 16 9 5 -3 10 -1 10 5 0 6 5 8 11 4 8 -4 9 1 5
17 -3 13 -3 18 0 12 3 -7 10 -13 15 -13 6 0 8 4 5 9 -3 5 4 11 15 14 14 4 18
10 13 18 -5 9 -2 11 8 6 22 -8 30 3 16 20 -8 10 -8 12 4 8 8 -3 23 7 37 25 17
24 25 29 36 20 11 -9 12 -7 8 11 -5 17 -3 20 7 14 9 -6 12 -4 8 7 -4 8 0 15 8
15 7 0 10 -5 7 -11 -4 -7 -2 -7 6 0 7 6 14 20 15 30 2 11 11 19 22 19 12 0 20
8 22 23 2 12 8 20 13 16 6 -3 13 3 16 15 3 11 9 18 14 15 8 -5 13 8 11 27 -1
4 6 6 15 5 9 0 22 8 27 20 6 11 16 19 23 17 7 -3 9 3 6 15 -2 11 0 23 6 26 7
5 8 1 4 -11 -6 -15 -5 -16 9 -3 8 8 13 24 11 35 -4 15 -2 16 5 7 7 -11 11 -9
15 8 4 15 11 21 21 17 10 -4 14 0 11 13 -3 14 1 17 12 13 11 -4 14 -2 9 5 -4
7 -1 12 8 12 8 0 18 5 22 12 5 7 2 9 -7 4 -8 -4 -6 -1 4 7 22 18 22 28 0 20
-10 -3 -15 -3 -11 1 3 4 14 9 25 10 10 2 17 11 17 20 -2 13 1 14 12 5 12 -10
13 -9 8 6 -5 12 -4 16 3 12 13 -8 26 20 16 36 -4 7 1 6 10 -2 15 -12 17 -12
11 3 -4 12 -2 15 9 11 11 -5 14 0 12 20 -3 22 -1 24 11 14 12 -10 13 -9 8 6
-5 12 -4 16 3 12 6 -4 10 1 9 11 0 10 5 16 13 14 12 -3 12 0 1 13 -11 13 -10
14 5 9 12 -5 16 -4 12 3 -4 6 0 14 9 17 9 3 12 11 8 18 -5 8 -2 9 9 5 11 -4
17 -1 17 8 0 8 6 15 13 15 8 0 7 3 -3 10 -12 7 -10 11 10 19 14 5 18 10 10 11
-10 0 -6 6 10 16 14 8 17 13 7 10 -11 -3 -15 -2 -12 4 3 6 13 10 21 10 8 0 14
7 14 16 0 9 5 12 13 8 9 -6 8 -3 -1 8 -11 14 -10 19 12 33 14 10 26 24 26 32
0 9 5 11 13 7 7 -5 6 0 -3 11 -9 11 -10 16 -2 11 12 -7 16 4 12 33 -1 13 1 13
14 2 14 -12 16 -11 10 4 -5 13 -4 16 4 11 7 -4 12 -2 12 3 0 6 -5 11 -11 11
-5 0 -7 5 -4 11 4 6 14 8 22 4 13 -4 14 -3 3 10 -11 13 -9 15 11 15 13 0 20 4
14 8 -12 8 -13 32 -1 50 6 11 11 11 24 0 14 -12 14 -10 2 12 -13 24 -12 24 5
10 10 -8 16 -10 12 -3 -4 6 0 18 8 26 11 12 12 17 2 20 -7 3 -4 6 6 6 10 1 15
6 12 12 -4 6 1 17 11 25 18 14 18 14 0 7 -13 -4 -17 -3 -12 5 4 7 15 12 24 12
13 0 13 2 -4 15 -19 15 -19 15 0 8 15 -5 18 -3 13 10 -4 10 -2 16 5 14 5 -1
12 6 14 16 2 9 5 24 7 32 2 8 9 21 17 28 12 10 12 9 1 -5 -8 -10 -9 -18 -3
-18 15 0 22 26 9 39 -11 11 -10 12 16 15 6 1 11 10 9 20 -2 12 1 16 9 10 8 -4
10 -3 5 5 -4 6 -2 19 6 28 7 9 8 14 2 10 -6 -3 -11 0 -11 8 0 8 4 12 9 9 4 -3
9 0 9 5 1 6 2 16 3 23 0 6 8 13 16 15 13 4 13 3 0 -6 -8 -6 -10 -11 -4 -11 18
0 24 13 13 27 -11 13 -1 18 24 14 5 -1 6 3 2 9 -3 6 -10 8 -14 6 -3 -3 -7 4
-7 14 0 10 3 17 7 14 4 -2 15 3 24 12 12 12 13 19 4 30 -8 10 -8 14 -1 14 7 0
9 7 5 17 -4 10 -2 14 4 10 6 -4 9 3 8 18 -2 17 1 22 11 18 10 -4 12 0 8 11 -4
10 -1 16 7 16 11 0 11 2 0 9 -12 7 -12 13 -3 24 7 7 8 18 4 23 -4 4 2 2 12 -6
18 -14 19 -14 8 7 -15 27 -15 36 -2 28 6 -3 10 -1 10 5 0 6 4 9 9 6 10 -7 9
20 -2 30 -4 4 2 14 13 21 17 12 18 18 8 36 -11 21 -10 21 7 7 12 -10 16 -10
11 -2 -4 7 -2 20 6 30 12 16 11 16 -7 2 -19 -15 -19 -14 -3 12 13 20 14 28 5
31 -7 3 -5 6 5 6 9 1 20 6 24 13 4 6 3 8 -3 5 -6 -4 -14 0 -17 9 -3 8 -2 12 4
9 6 -3 10 -1 10 5 0 6 4 9 9 5 5 -3 13 0 17 6 4 8 3 9 -4 5 -16 -10 -15 7 1
23 9 11 9 13 0 7 -16 -9 -17 10 -3 19 8 5 8 11 0 20 -8 10 -6 18 9 32 14 13
17 23 11 33 -13 21 -12 33 2 24 8 -5 9 0 5 15 -4 17 -2 20 7 12 8 -7 12 -5 12
9 0 10 -4 16 -8 14 -4 -3 -8 -1 -8 5 0 5 6 12 13 14 8 4 8 6 -2 6 -11 1 -10 5
5 17 10 8 13 13 7 9 -7 -3 -13 -1 -13 4 0 6 4 11 10 11 5 0 7 7 4 15 -4 8 -11
12 -17 8 -6 -4 -7 -1 -3 6 6 9 12 8 26 -4 12 -11 20 -13 25 -5 3 6 1 9 -6 8
-6 -2 -14 3 -17 11 -3 9 0 11 8 6 9 -6 9 -3 1 14 -10 18 -9 20 6 14 15 -6 16
-4 5 9 -10 13 -10 17 0 21 10 4 10 6 -1 6 -11 1 -11 4 0 17 10 13 10 17 -2 25
-11 7 -11 9 0 9 11 0 11 3 0 17 -12 15 -12 16 2 11 13 -5 16 -2 12 13 -3 10
-10 16 -16 12 -6 -4 -7 -1 -3 6 5 7 14 10 22 7 8 -3 11 0 7 9 -3 8 -10 12 -17
8 -7 -4 -7 -2 1 8 10 12 10 18 0 28 -9 10 -9 11 5 6 13 -5 16 -1 14 24 -1 21
2 31 12 31 7 0 10 5 7 10 -4 6 -11 8 -16 5 -5 -4 -9 -2 -9 3 0 6 7 13 16 16
13 5 14 9 4 21 -9 10 -9 15 -1 15 6 0 11 5 11 11 0 5 -3 8 -8 5 -10 -6 -8 86
2 102 4 7 2 21 -6 30 -12 15 -11 16 5 3 22 -17 30 -9 32 28 1 19 -3 27 -11 24
-20 -7 -28 18 -10 33 9 8 11 9 6 2 -15 -18 -12 -32 4 -19 10 9 13 65 14 271 0
144 -3 258 -8 255 -5 -3 -12 -1 -15 5 -4 6 -1 9 7 8 10 -2 13 22 13 114 0 107
-1 115 -17 107 -10 -5 -18 -12 -18 -15 0 -4 8 -3 18 1 14 5 15 4 5 -6 -10 -9
-16 -10 -24 -2 -8 8 -8 13 0 17 6 4 11 12 11 17 0 6 -3 8 -8 6 -4 -3 -7 5 -7
18 0 13 3 21 8 18 12 -7 8 12 -5 26 -10 11 -10 13 0 7 14 -8 17 10 2 19 -7 4
-6 13 1 27 10 18 9 20 -7 14 -16 -6 -16 -5 2 15 10 12 13 19 5 14 -10 -6 -12
-2 -6 15 5 15 3 20 -3 16 -6 -3 -14 -1 -18 5 -4 8 -3 9 4 5 7 -4 12 -1 12 9 0
10 -5 13 -12 9 -10 -6 -10 -4 0 8 10 13 10 17 -4 22 -13 5 -15 9 -6 18 9 9 7
17 -6 32 -16 20 -16 20 2 6 18 -14 19 -14 8 7 -16 28 -15 38 1 27 7 -5 4 -1
-6 9 -13 12 -15 17 -6 17 12 0 12 2 0 9 -11 7 -11 9 0 14 12 5 12 6 0 6 -11 1
-11 4 -1 16 8 9 8 15 2 15 -6 0 -10 14 -10 31 1 17 -3 34 -9 37 -14 10 -38 56
-24 48 6 -4 11 -2 11 3 0 6 -6 11 -12 11 -9 0 -8 4 2 10 10 6 11 10 3 10 -7 0
-13 5 -13 11 0 5 6 7 13 3 8 -5 8 -2 -2 9 -10 12 -10 17 -2 17 8 0 6 6 -4 16
-9 9 -14 23 -11 31 3 8 1 11 -4 8 -6 -3 -10 1 -10 9 0 9 -6 16 -12 16 -9 0 -8
4 2 11 12 8 12 12 2 16 -10 4 -10 8 0 21 8 10 9 13 1 9 -6 -4 -14 -3 -18 3 -3
5 -2 10 3 10 6 0 13 7 16 16 3 8 2 13 -3 10 -4 -3 -13 6 -20 20 -6 15 -16 23
-24 19 -6 -4 -3 0 7 9 18 14 18 16 2 22 -14 5 -15 9 -4 15 10 7 10 9 1 9 -7 0
-13 11 -13 25 0 23 -10 30 -33 26 -5 -1 -6 3 -2 9 3 6 10 8 15 5 5 -3 12 0 16
6 4 8 3 9 -4 5 -7 -4 -12 -1 -12 8 0 9 -6 16 -12 16 -9 0 -8 4 2 10 13 8 12
10 -4 10 -15 0 -16 3 -6 15 7 9 10 18 6 22 -3 3 -6 1 -6 -5 0 -7 -4 -12 -10
-12 -5 0 -7 7 -4 15 4 10 1 14 -7 12 -8 -2 -11 -2 -6 0 12 7 8 33 -5 33 -9 0
-8 4 2 10 8 5 10 10 4 10 -18 0 -34 46 -22 58 8 8 5 14 -13 21 -21 9 -22 10
-4 11 19 1 19 2 2 9 -10 4 -19 11 -19 16 0 6 -5 17 -11 25 -10 13 -10 13 5 1
10 -7 15 -18 11 -24 -3 -6 -1 -7 5 -3 8 5 5 17 -8 41 -11 19 -16 35 -12 35 4
0 -4 10 -18 21 -14 11 -19 18 -13 14 9 -4 11 -1 7 9 -3 9 -10 13 -15 10 -5 -3
-9 0 -9 6 0 6 -4 9 -8 6 -4 -2 -8 4 -8 15 0 19 1 19 13 3 7 -10 13 -13 13 -7
0 6 -7 16 -15 23 -8 7 -15 20 -15 30 0 10 -8 24 -17 31 -16 13 -17 12 -4 -4
12 -15 12 -17 -3 -11 -18 7 -21 20 -7 28 5 4 4 16 -2 30 -7 15 -16 21 -22 16
-7 -6 -10 3 -9 26 1 19 -2 37 -7 40 -5 3 -6 10 -3 16 4 7 2 8 -4 4 -8 -4 -12
0 -12 11 0 15 -2 16 -10 3 -9 -13 -10 -13 -11 0 0 8 -3 24 -5 35 -3 11 -6 26
-7 33 -2 7 -9 18 -15 24 -7 7 -12 19 -13 27 0 11 -2 12 -6 4 -2 -7 -9 -13 -14
-13 -6 0 -5 9 2 21 8 15 8 19 0 15 -10 -7 -16 7 -12 28 1 5 -5 6 -12 3 -11 -4
-13 0 -10 16 4 18 3 20 -7 7 -10 -13 -11 -11 -7 7 3 12 2 22 -2 21 -3 0 -13 0
-21 1 -12 1 -11 5 4 16 11 8 14 15 7 15 -7 0 -9 5 -5 11 4 7 -1 7 -16 -1 -12
-6 -24 -9 -28 -6 -3 3 0 6 6 6 7 0 12 7 12 16 0 9 -5 12 -12 8 -8 -5 -8 -2 1
10 8 9 10 16 5 14 -5 -1 -19 4 -32 11 -18 9 -21 15 -12 26 8 10 7 14 -2 18
-10 4 -10 7 0 15 11 7 6 12 -18 20 -21 8 -31 17 -30 29 4 31 0 36 -15 23 -9
-7 -18 -10 -22 -6 -3 3 -1 6 5 6 9 0 9 6 0 25 -6 13 -14 23 -17 20 -4 -2 -13
10 -20 26 -8 18 -17 26 -24 22 -7 -4 -7 -1 1 9 10 13 10 18 1 24 -8 4 -9 3 -5
-4 10 -17 -3 -15 -20 2 -16 16 -19 30 -5 21 5 -3 13 0 17 6 4 8 3 9 -4 5 -6
-4 -17 2 -24 14 -7 11 -20 20 -28 20 -13 0 -13 1 0 10 12 8 12 10 1 10 -16 0
-48 35 -57 63 -5 16 -8 17 -16 6 -7 -10 -8 -8 -5 8 5 25 -16 49 -34 38 -8 -6
-8 -2 -1 12 9 15 8 20 -3 20 -8 0 -11 -5 -8 -10 3 -6 1 -7 -5 -3 -7 4 -12 14
-12 22 0 8 -3 13 -7 11 -13 -6 -50 39 -47 57 2 14 0 15 -12 5 -12 -10 -13 -9
-8 5 4 10 0 18 -10 22 -9 3 -13 10 -10 15 3 5 -4 9 -14 9 -11 0 -23 7 -26 16
-6 15 -4 15 11 3 16 -13 17 -12 4 4 -8 10 -20 16 -27 13 -8 -3 -11 2 -9 14 3
14 -1 17 -13 13 -15 -6 -15 -4 -4 9 11 14 10 16 -6 11 -14 -3 -22 1 -27 16 -3
12 -11 21 -16 21 -6 0 -8 4 -4 9 3 5 -4 12 -15 16 -11 3 -20 11 -20 16 0 6 -4
7 -10 4 -5 -3 -10 1 -10 9 0 9 -4 16 -10 16 -5 0 -16 13 -25 30 -10 19 -20 27
-30 24 -9 -4 -15 0 -15 9 0 8 -8 21 -17 28 -16 13 -17 12 -4 -4 12 -15 12 -17
-3 -11 -9 3 -16 10 -16 15 0 12 -42 59 -52 59 -5 0 -6 -5 -2 -12 4 -7 3 -8 -5
-4 -6 4 -9 12 -6 17 4 5 2 16 -3 25 -7 12 -11 13 -17 5 -9 -15 -35 4 -35 27 0
8 -3 13 -6 9 -7 -7 -34 17 -34 31 0 6 -7 13 -16 16 -15 6 -15 4 -3 -11 13 -16
12 -17 -3 -4 -10 7 -18 20 -18 28 0 10 -7 14 -19 10 -14 -3 -18 -1 -14 9 3 8
0 15 -6 15 -26 3 -30 4 -38 13 -5 5 -3 6 5 2 6 -4 12 -2 12 3 0 10 -14 15 -32
12 -5 0 -8 6 -8 15 0 14 -2 15 -17 3 -11 -10 -14 -10 -9 -1 7 11 -5 17 -28 13
-5 -1 -3 5 4 14 11 13 10 15 -3 9 -10 -3 -22 4 -33 21 -10 15 -23 24 -31 21
-8 -3 -12 -2 -10 2 3 4 -1 12 -8 19 -11 10 -15 10 -18 0 -4 -9 -6 -9 -6 1 -1
7 -5 11 -10 8 -5 -3 -8 2 -7 12 1 12 -5 16 -21 15 -11 -1 -27 5 -35 14 -9 12
-9 15 0 9 6 -4 12 -2 12 3 0 6 -7 11 -15 11 -7 0 -19 8 -25 18 -11 16 -11 16
-6 -2 6 -16 4 -17 -9 -6 -12 10 -15 10 -15 0 0 -8 -3 -10 -6 -7 -4 4 -1 14 7
24 12 15 12 16 -3 10 -21 -8 -68 14 -68 32 0 8 -7 11 -19 8 -13 -3 -18 0 -15
7 3 7 -2 13 -11 13 -8 0 -15 -5 -15 -10 0 -6 -3 -7 -6 -4 -4 4 -2 13 5 21 9
11 8 14 -6 12 -10 0 -17 4 -16 10 1 6 -4 11 -12 11 -8 0 -12 -3 -10 -7 2 -4
-2 -7 -10 -7 -8 0 -12 4 -9 9 3 4 0 8 -6 8 -6 0 -9 4 -6 9 3 5 -1 12 -10 15
-8 3 -12 2 -9 -4 3 -6 -1 -7 -9 -4 -9 3 -16 12 -16 19 0 8 -5 17 -12 21 -8 5
-9 2 -5 -9 3 -9 1 -19 -6 -23 -7 -4 -9 -4 -5 1 4 4 0 14 -10 22 -9 8 -11 12
-4 8 18 -9 15 -2 -10 19 -14 12 -19 14 -16 4 4 -9 -1 -14 -13 -14 -11 0 -19 6
-19 14 0 8 5 10 13 6 7 -4 9 -3 4 2 -9 9 -13 10 -43 13 -9 1 -12 6 -8 14 5 7
0 6 -11 -3 -11 -9 -16 -10 -11 -2 4 6 3 12 -3 12 -5 0 -12 -6 -14 -12 -3 -7
-6 -2 -6 12 -1 20 -3 22 -11 10 -8 -13 -10 -13 -10 2 0 12 -5 15 -17 11 -11
-4 -14 -3 -9 5 4 7 2 12 -3 12 -6 0 -11 -5 -11 -10 0 -6 -6 -5 -14 2 -8 7 -11
18 -8 23 3 6 -1 5 -9 -2 -11 -9 -18 -8 -31 1 -10 7 -14 17 -10 21 4 5 2 5 -5
1 -6 -3 -17 2 -23 11 -9 15 -10 14 -5 -7 5 -25 5 -25 -6 -2 -7 12 -16 22 -21
22 -5 0 -6 5 -2 12 5 7 3 8 -7 2 -24 -15 -42 -14 -29 1 9 11 7 12 -11 8 -15
-4 -27 1 -41 18 -11 13 -17 18 -13 12 3 -7 1 -13 -4 -13 -6 0 -11 5 -11 11 0
6 -5 7 -12 2 -22 -13 -40 -12 -34 2 3 8 0 17 -6 21 -7 4 -8 3 -4 -4 4 -7 2
-12 -3 -12 -6 0 -11 8 -11 18 0 14 -2 15 -10 2 -8 -13 -10 -12 -10 3 0 10 -5
15 -10 12 -6 -4 -7 -12 -3 -18 4 -7 0 -6 -10 2 -9 7 -17 10 -17 5 0 -5 -4 -3
-9 5 -7 11 -13 12 -24 3 -11 -9 -14 -9 -14 3 0 8 4 12 8 9 4 -2 10 0 13 5 7
10 -13 9 -31 -2 -7 -4 -18 2 -28 15 -18 27 -17 27 -40 8 -11 -9 -16 -10 -11
-2 7 11 -6 16 -41 15 -7 -1 -11 2 -9 6 2 3 -2 12 -10 19 -11 10 -14 10 -14 0
0 -10 -2 -10 -9 1 -7 11 -9 11 -14 0 -5 -12 -6 -12 -6 0 -1 11 -4 11 -16 1 -9
-7 -18 -10 -22 -6 -3 3 -1 6 5 6 7 0 12 5 12 11 0 5 -4 7 -10 4 -5 -3 -10 0
-11 7 0 7 -4 4 -9 -7 -7 -16 -9 -16 -9 -4 -1 9 -8 20 -17 23 -8 3 -12 2 -9 -3
3 -5 1 -12 -5 -16 -6 -3 -11 4 -11 17 -1 18 -2 19 -6 5 -5 -18 -5 -18 -19 0
-11 14 -13 15 -14 3 0 -12 -2 -12 -10 2 -11 17 -50 14 -50 -5 0 -6 -6 -3 -13
7 -7 9 -17 16 -22 15 -16 -4 -45 12 -40 21 6 10 -15 8 -32 -3 -12 -8 -17 -2
-14 16 1 5 -3 6 -8 3 -5 -4 -12 -2 -16 3 -3 6 -12 8 -19 5 -7 -3 -20 2 -29 10
-11 11 -17 12 -19 4 -3 -7 -9 -8 -19 -3 -17 11 -60 15 -54 5 2 -4 -2 -7 -10
-7 -8 0 -12 4 -9 9 8 13 -10 10 -25 -4 -11 -11 -13 -10 -8 4 3 10 1 20 -5 24
-7 4 -8 3 -4 -4 4 -7 2 -12 -4 -12 -6 0 -8 -5 -4 -11 3 -6 -8 -4 -24 5 -36 19
-56 21 -46 4 5 -7 3 -8 -5 -4 -7 5 -10 14 -7 22 4 10 0 11 -19 4 -20 -8 -25
-6 -25 6 0 8 -5 12 -10 9 -6 -4 -7 -12 -3 -18 4 -7 0 -6 -10 2 -9 7 -17 11
-17 7 0 -4 -11 1 -25 10 -20 13 -24 13 -20 2 4 -9 -1 -14 -15 -14 -11 0 -20 4
-20 8 0 4 -10 8 -22 8 -19 0 -20 -2 -8 -11 13 -9 13 -10 0 -6 -8 2 -14 9 -13
15 3 15 -42 9 -64 -8 -10 -8 -15 -10 -11 -6 4 5 0 15 -10 22 -15 11 -12 13 21
10 20 -2 39 -1 41 3 3 4 -38 7 -89 7 -62 0 -91 -4 -87 -11 3 -6 0 -5 -9 1 -21
17 -457 18 -478 1 -8 -6 -12 -7 -8 -1 10 18 -115 12 -131 -6 -12 -13 -13 -13
-9 1 3 9 -1 16 -9 16 -17 0 -17 -2 -3 -30 9 -20 9 -20 -4 -5 -8 10 -18 14 -22
10 -5 -4 -5 -2 -1 5 3 6 1 15 -5 19 -8 5 -9 3 -4 -6z m122 -6 c-3 -3 -11 -6
-19 -8 -7 -1 -20 -6 -28 -11 -12 -7 -13 -6 -3 6 6 8 22 15 34 16 11 1 19 0 16
-3z m648 -4 c-3 -5 -1 -10 6 -10 7 0 10 -3 6 -6 -9 -9 -28 6 -22 17 4 5 8 9
11 9 3 0 2 -4 -1 -10z m-1215 -74 c0 -2 -10 -11 -23 -19 -19 -12 -24 -13 -24
-2 0 8 3 12 7 10 3 -2 12 0 20 6 17 10 20 11 20 5z m1795 -25 c-3 -2 -11 1
-18 7 -8 7 -18 8 -22 4 -5 -4 -5 -1 -1 5 5 10 11 10 26 1 11 -7 17 -14 15 -17z
m33 -6 c-3 -3 -9 2 -12 12 -6 14 -5 15 5 6 7 -7 10 -15 7 -18z m-3255 -530
c-3 -9 -8 -14 -10 -11 -3 3 -2 9 2 15 9 16 15 13 8 -4z m-303 -205 c0 -5 -5
-10 -11 -10 -5 0 -7 5 -4 10 3 6 8 10 11 10 2 0 4 -4 4 -10z m-120 -94 c0 -2
-7 -7 -16 -10 -8 -3 -12 -2 -9 4 6 10 25 14 25 6z m6641 -1363 c13 -16 12 -17
-3 -4 -10 7 -18 15 -18 17 0 8 8 3 21 -13z m196 -400 c-4 -3 -1 -13 6 -22 11
-14 10 -14 -5 -2 -21 15 -23 31 -6 31 6 0 8 -3 5 -7z m-8227 -63 c0 -5 -5 -10
-11 -10 -5 0 -7 5 -4 10 3 6 8 10 11 10 2 0 4 -4 4 -10z m8400 -440 c6 -11 8
-20 6 -20 -3 0 -10 9 -16 20 -6 11 -8 20 -6 20 3 0 10 -9 16 -20z m40 -159 c7
-15 7 -22 -2 -27 -7 -4 -10 -4 -6 1 4 4 3 16 -3 26 -5 11 -7 19 -5 19 3 0 10
-9 16 -19z m37 -157 c-3 -3 -12 -4 -19 -1 -8 3 -5 6 6 6 11 1 17 -2 13 -5z
m-8757 -294 c0 -5 -5 -10 -11 -10 -5 0 -7 5 -4 10 3 6 8 10 11 10 2 0 4 -4 4
-10z m-20 -235 c-6 -8 -9 -18 -6 -23 3 -6 -2 -16 -12 -23 -15 -13 -16 -12 -3
4 7 9 9 17 4 17 -5 0 -10 7 -10 15 0 8 4 12 9 9 4 -3 8 0 8 5 0 6 5 11 11 11
8 0 8 -4 -1 -15z m8870 -15 c0 -5 -4 -10 -10 -10 -5 0 -10 5 -10 10 0 6 5 10
10 10 6 0 10 -4 10 -10z m0 -36 c0 -2 -9 0 -20 6 -11 6 -20 13 -20 16 0 2 9 0
20 -6 11 -6 20 -13 20 -16z m-8886 -30 c3 -8 2 -12 -4 -9 -6 3 -10 10 -10 16
0 14 7 11 14 -7z m8876 12 c0 -2 -8 -10 -17 -17 -16 -13 -17 -12 -4 4 13 16
21 21 21 13z m10 -60 c0 -3 -4 -8 -10 -11 -5 -3 -10 -1 -10 4 0 6 5 11 10 11
6 0 10 -2 10 -4z m-8880 -86 c0 -5 -2 -10 -4 -10 -3 0 -8 5 -11 10 -3 6 -1 10
4 10 6 0 11 -4 11 -10z m8871 -377 c-12 -20 -14 -14 -5 12 4 9 9 14 11 11 3
-2 0 -13 -6 -23z m-8871 -43 c0 -5 -2 -10 -4 -10 -3 0 -8 5 -11 10 -3 6 -1 10
4 10 6 0 11 -4 11 -10z m8876 -26 c3 -16 2 -26 -1 -23 -3 4 -8 19 -11 35 -3
16 -2 26 1 23 3 -4 8 -19 11 -35z m-8856 -48 c0 -3 -4 -8 -10 -11 -5 -3 -10
-1 -10 4 0 6 5 11 10 11 6 0 10 -2 10 -4z m-28 -33 c1 -4 8 -14 17 -21 14 -11
14 -11 -1 -6 -19 6 -25 -11 -8 -19 6 -3 5 -4 -2 -3 -7 1 -13 17 -14 34 0 27 6
40 8 15z m8879 -18 c3 2 5 -5 5 -15 0 -25 0 -25 -22 8 -13 19 -13 24 -2 15 8
-7 17 -11 19 -8z m-8811 -341 c0 -8 -19 -13 -24 -6 -3 5 1 9 9 9 8 0 15 -2 15
-3z m31 -237 c-6 -8 -7 -18 -3 -22 4 -5 2 -5 -5 -1 -14 8 -6 36 9 36 7 0 6 -5
-1 -13z m8654 -176 c-6 -5 -25 10 -25 20 0 5 6 4 14 -3 8 -7 12 -15 11 -17z
m-75 -275 c0 -11 -19 -15 -25 -6 -3 5 1 10 9 10 9 0 16 -2 16 -4z m-100 -280
c0 -3 -4 -8 -10 -11 -5 -3 -10 -1 -10 4 0 6 5 11 10 11 6 0 10 -2 10 -4z
m-8207 -111 c-3 -9 -8 -14 -10 -11 -3 3 -2 9 2 15 9 16 15 13 8 -4z m8102
-105 c3 -6 -1 -7 -9 -4 -18 7 -21 14 -7 14 6 0 13 -4 16 -10z m-774 -1143
c-10 -9 -11 -8 -5 6 3 10 9 15 12 12 3 -3 0 -11 -7 -18z m-5956 -505 c-3 -3
-11 0 -18 7 -9 10 -8 11 6 5 10 -3 15 -9 12 -12z m4585 -488 c0 -8 -19 -13
-24 -6 -3 5 1 9 9 9 8 0 15 -2 15 -3z m-2107 -408 c15 2 25 -1 22 -6 -6 -10
-45 -8 -62 3 -6 4 -13 1 -16 -5 -3 -7 -4 -3 -4 9 1 19 4 20 17 9 8 -7 27 -11
43 -10z m499 2 c-18 -18 -24 -20 -34 -10 -11 11 -9 12 6 6 15 -6 17 -4 11 6
-5 8 -4 11 3 6 6 -3 13 -2 17 4 3 5 9 10 13 10 3 0 -4 -10 -16 -22z m65 6 c-9
-10 -47 -12 -42 -3 4 5 11 7 16 4 5 -4 9 -1 9 5 0 6 5 8 11 5 6 -4 8 -9 6 -11z
m83 6 c0 -5 -5 -10 -11 -10 -5 0 -7 5 -4 10 3 6 8 10 11 10 2 0 4 -4 4 -10z
m-245 -20 c-3 -5 -12 -10 -18 -10 -7 0 -6 4 3 10 19 12 23 12 15 0z m40 -8
c-3 -3 -11 0 -18 7 -9 10 -8 11 6 5 10 -3 15 -9 12 -12z"/>
<path d="M4900 8916 c0 -2 7 -7 16 -10 8 -3 12 -2 9 4 -6 10 -25 14 -25 6z"/>
<path d="M5160 8860 c18 -12 30 -13 30 -2 0 4 -10 9 -22 9 -18 2 -20 0 -8 -7z"/>
<path d="M5495 8801 c-3 -5 -2 -12 3 -15 5 -3 9 1 9 9 0 17 -3 19 -12 6z"/>
<path d="M3336 8773 c-6 -14 -5 -15 5 -6 7 7 10 15 7 18 -3 3 -9 -2 -12 -12z"/>
<path d="M5915 8670 c3 -5 8 -10 11 -10 2 0 4 5 4 10 0 6 -5 10 -11 10 -5 0
-7 -4 -4 -10z"/>
<path d="M2840 8609 c0 -5 5 -7 10 -4 6 3 10 8 10 11 0 2 -4 4 -10 4 -5 0 -10
-5 -10 -11z"/>
<path d="M6315 8510 c3 -5 8 -10 11 -10 2 0 4 5 4 10 0 6 -5 10 -11 10 -5 0
-7 -4 -4 -10z"/>
<path d="M2215 8320 c-4 -6 -11 -7 -17 -4 -7 4 -8 2 -4 -4 7 -12 36 -5 36 9 0
12 -7 11 -15 -1z"/>
<path d="M7070 8081 c0 -6 4 -13 10 -16 6 -3 7 1 4 9 -7 18 -14 21 -14 7z"/>
<path d="M7340 7861 c0 -6 4 -13 10 -16 6 -3 7 1 4 9 -7 18 -14 21 -14 7z"/>
<path d="M7810 7399 c0 -5 5 -7 10 -4 6 3 10 8 10 11 0 2 -4 4 -10 4 -5 0 -10
-5 -10 -11z"/>
<path d="M8210 6860 c8 -5 20 -10 25 -10 6 0 3 5 -5 10 -8 5 -19 10 -25 10 -5
0 -3 -5 5 -10z"/>
<path d="M8630 6040 c6 -11 13 -20 16 -20 2 0 0 9 -6 20 -6 11 -13 20 -16 20
-2 0 0 -9 6 -20z"/>
<path d="M8815 5431 c-3 -5 -2 -12 3 -15 5 -3 9 1 9 9 0 17 -3 19 -12 6z"/>
<path d="M78 5383 c6 -2 9 -10 6 -15 -4 -7 -2 -8 5 -4 13 9 5 26 -12 25 -9 0
-8 -2 1 -6z"/>
<path d="M8896 4934 c-8 -20 -8 -24 2 -24 4 0 8 9 9 20 2 24 -3 26 -11 4z"/>
<path d="M5 4900 c3 -5 11 -10 16 -10 6 0 7 5 4 10 -3 6 -11 10 -16 10 -6 0
-7 -4 -4 -10z"/>
<path d="M8901 4031 c-19 -12 -22 -51 -4 -44 16 6 17 23 1 23 -6 0 -3 7 8 15
21 16 17 20 -5 6z"/>
<path d="M8325 2260 c-3 -5 -1 -10 4 -10 6 0 11 5 11 10 0 6 -2 10 -4 10 -3 0
-8 -4 -11 -10z"/>
<path d="M753 1965 c0 -8 4 -12 9 -9 5 3 6 10 3 15 -9 13 -12 11 -12 -6z"/>
<path d="M7505 1209 c-4 -6 -5 -12 -2 -15 2 -3 7 2 10 11 7 17 1 20 -8 4z"/>
<path d="M7105 870 c-3 -6 1 -7 9 -4 18 7 21 14 7 14 -6 0 -13 -4 -16 -10z"/>
<path d="M6976 781 c-14 -15 -15 -21 -4 -27 7 -4 10 -4 6 1 -4 4 2 16 14 26
11 11 17 19 11 19 -5 0 -18 -9 -27 -19z"/>
<path d="M2476 463 c-4 -9 -4 -14 0 -10 4 4 14 1 23 -6 14 -11 15 -10 1 8 -8
11 -15 21 -16 23 -1 2 -5 -5 -8 -15z"/>
<path d="M2970 266 c0 -4 7 -14 15 -22 8 -9 15 -11 15 -6 0 5 -7 15 -15 22 -8
7 -15 9 -15 6z"/>
<path d="M5855 230 c-3 -5 -1 -10 4 -10 6 0 11 5 11 10 0 6 -2 10 -4 10 -3 0
-8 -4 -11 -10z"/>
<path d="M3590 79 c0 -5 5 -7 10 -4 6 3 10 8 10 11 0 2 -4 4 -10 4 -5 0 -10
-5 -10 -11z"/>
<path d="M5106 52 c-3 -4 4 -9 15 -9 23 -2 25 3 4 10 -8 4 -16 3 -19 -1z"/>
<path d="M4074 19 c-3 -5 -2 -9 3 -8 4 1 16 -1 26 -6 28 -12 29 -1 1 12 -14 7
-26 7 -30 2z"/>
</g>
</svg>
